<?xml version="1.0"?><svg width="420" height="520" xmlns="http://www.w3.org/2000/svg" preserveAspectRatio="xMidYMid meet">

 <metadata id="metadata7">image/svg+xmlSimple anchor2008-05-12Bogdan Costeapublic domainhttp://www.gridpulse.comhttp://www.gridpulse.comanchorsea</metadata>
 <g>
  <title>Layer 1</title>
  <g transform="rotate(12.7001 216.163 233.019)" id="layer1">
   <g transform="matrix(0.734535 0 0 0.822399 -61.3647 -136.588)" id="g1312">
    <path d="m369.983337,195.268631c-7.473999,0.156006 -11.553009,4.512009 -9.093994,10.469009c3.131012,7.584991 20.343994,4.996002 20.343994,-3.063004c0,-4.139008 -2.576996,-6.526001 -7.843994,-7.218994c-1.196014,-0.157013 -2.338989,-0.210007 -3.406006,-0.187012zm1.312012,-15.75c20.535004,0 39.440002,22.274002 27.968994,32.937012c-4.358002,4.050995 -0.763,24.145996 5.125,28.687988c2.300995,1.775009 22.365997,5.313004 44.625,7.875c37.868988,4.358002 41.113007,4.333008 50.312988,-0.718994c15.631042,-8.582993 21.281006,-3.091995 21.281006,20.687973c0,22.487 -5.409973,28.776001 -18.968994,22.031006c-6.123993,-3.046997 -15.506012,-3.143982 -43.468994,-0.5c-43.145996,4.07901 -51.184998,6.64801 -54.031006,17.187012c-2.694,9.97699 0.709991,161.667999 4.812988,214.218994c3.114014,39.893005 8.27301,62.651001 16.156006,71.343994c5.487,6.051025 38.369019,15.062988 54.25,14.875c29.286011,-0.348022 64.366028,-20.115967 108.687012,-61.281006c5.401978,-5.018005 9.437012,-8.640015 13.437988,-12.218994c-17.268982,-4.877014 -42.812988,-7.593994 -42.812988,-7.593994l91.437988,-32.843994c0,0 -5.737,97.505005 -8.593994,103.218994c-3.242004,3.512024 -8.562988,-24.927002 -17.437012,-43.718994c-1.396973,2.593994 -2.338989,4.64801 -4.062988,7.625c-43.763,75.604004 -82.362976,106.13501 -141.437012,111.781982c-31.191986,2.981018 -68.769989,10.221985 -78.812988,15.218018c-3.687988,1.835022 -10.613007,9.585022 -15.406006,17.187988c-4.794006,7.603027 -10.671997,13.812012 -13.062988,13.812012c-2.390991,0 -8.269012,-6.208984 -13.062012,-13.812012c-4.794006,-7.602966 -11.748993,-15.352966 -15.437988,-17.187988c-10.042999,-4.996033 -47.58902,-12.237 -78.781006,-15.218018c-55.919998,-5.346008 -93.556,-33.498962 -134.530991,-100.562988c-7.617996,18.452026 -12.398994,42.067993 -15.374992,38.843994c-2.857002,-5.714966 -8.562698,-103.218994 -8.562698,-103.218994l91.406685,32.875c0,0 -23.811005,2.5 -41,7.062988c43.64299,40.260986 78.311996,59.687012 107.280991,60.031006c15.880005,0.187988 48.731018,-8.823975 54.218994,-14.875c7.882019,-8.692993 13.041016,-31.450989 16.156006,-71.343994c4.102997,-52.550995 7.537018,-204.242004 4.843994,-214.218994c-2.845978,-10.539001 -10.885986,-13.108002 -54.031982,-17.187012c-27.962006,-2.643982 -37.345001,-2.546997 -43.468002,0.5c-13.559006,6.744995 -19,0.455994 -19,-22.031006c0,-23.779968 5.681,-29.270966 21.311996,-20.687973c9.199997,5.052002 12.412003,5.076996 50.281006,0.718994c22.259003,-2.561996 42.355988,-6.099991 44.656982,-7.875c5.887024,-4.541992 9.483002,-24.636993 5.125,-28.687988c-11.471985,-10.66301 7.434021,-32.937012 27.968018,-32.937012z" stroke="#00007f" fill="#00007f" id="path1363"/>
    <path d="m363.549347,694.330627c-3.17099,-4.98999 -9.18399,-11.155029 -13.362,-13.700012c-9.777008,-5.953979 -45.80899,-13.424011 -80.972015,-16.784973c-58.900986,-5.630005 -94.899994,-33.991028 -138.292984,-108.952026l-15.728989,-27.171997l33.003983,30.257019c46.555008,42.678955 78.057007,59.156982 113.600998,59.424011c23.300995,0.174988 54.446014,-8.003052 62.475006,-16.405029c15.027985,-15.726013 19.819,-58.242981 22.89801,-203.209991c2.376984,-111.955994 3.300995,-108.356018 -29.124023,-113.440002c-12.655975,-1.985016 -37.898987,-3.824005 -56.094971,-4.088013l-33.083023,-0.479004l-0.018997,-11.896973c-0.014999,-10.142029 0.839005,-11.563019 5.789001,-9.629028c12.496002,4.883026 21.136002,4.915009 62.194,0.235016c47.558014,-5.42099 53.07901,-8.039993 56.488007,-26.794983c2.153992,-11.854004 2.440979,-12.063004 16.540985,-12.063004c14.101013,0 14.388,0.209 16.542023,12.063004c3.408997,18.75499 8.929993,21.373993 56.487976,26.794983c41.058014,4.679993 49.697998,4.64801 62.194,-0.235016c4.950012,-1.93399 5.804016,-0.513 5.789001,9.629028l-0.018982,11.896973l-33.083008,0.479004c-18.196014,0.264008 -43.438995,2.102997 -56.095001,4.088013c-32.424988,5.083984 -31.501007,1.484009 -29.123993,113.440002c3.078979,144.96701 7.869995,187.483978 22.89798,203.209991c8.029022,8.401978 39.174011,16.580017 62.475006,16.405029c35.544037,-0.267029 67.04599,-17.755005 113.600983,-60.434998l42.095032,-40.358032l-11.687988,26.161987c-43.356995,74.89801 -92.427002,115.35199 -151.425018,121.147034c-58.311005,5.72699 -79.967987,12.247986 -92.013,27.703979l-9.182007,11.781006l-5.765991,-9.072998z" stroke="#00007f" fill="#00007f" id="path1351"/>
    <path d="m111.379356,514.861633l5.159004,77.932007c0,0 11.438995,-32.587036 18.283997,-45.022034c8.127991,-1.820984 42.636993,-8.046997 41.651993,-9.08197c-38.236008,-15.194031 -64.158989,-20.773987 -65.094994,-23.828003z" stroke="#00007f" fill="#00007f" id="path5012"/>
    <path d="m643.962341,501.936615l-4.426025,77.97702c0,0 -11.744995,-32.478027 -18.705994,-44.848022c-8.145996,-1.744995 -42.710999,-7.64502 -41.735962,-8.688965c38.091003,-15.55304 63.960999,-21.377014 64.867981,-24.440033z" stroke="#00007f" fill="#00007f" id="path5740"/>
   </g>
  </g>
 </g>
</svg>